<?xml version="1.0" standalone="no"?>
<!DOCTYPE svg PUBLIC "-//W3C//DTD SVG 20010904//EN"
 "http://www.w3.org/TR/2001/REC-SVG-20010904/DTD/svg10.dtd">
<svg version="1.0" xmlns="http://www.w3.org/2000/svg"
 width="80.000000pt" height="80.000000pt" viewBox="0 0 80.000000 80.000000"
 preserveAspectRatio="xMidYMid meet">

<g transform="translate(0.000000,80.000000) scale(0.100000,-0.100000)"
fill="#000000" stroke="none">
<path d="M327 768 c-49 -13 -103 -67 -116 -115 -16 -55 -4 -192 20 -224 10
-15 21 -38 24 -52 4 -14 15 -33 26 -43 12 -11 19 -30 19 -54 0 -29 6 -41 24
-54 14 -9 33 -32 42 -53 17 -35 17 -38 -3 -95 l-20 -58 57 0 57 0 -20 58 c-20
57 -20 60 -3 95 9 21 28 44 42 53 18 13 24 25 24 54 0 21 6 43 14 49 8 6 20
26 27 44 7 18 21 43 30 55 17 23 19 35 22 179 2 50 -25 92 -69 106 -16 6 -33
16 -38 24 -10 19 -68 43 -98 42 -13 -1 -40 -6 -61 -11z m192 -182 c17 -27 21
-50 21 -117 0 -100 -18 -137 -79 -169 -50 -25 -72 -25 -122 0 -59 30 -79 70
-79 156 0 86 11 99 93 109 35 5 70 16 90 30 43 31 52 30 76 -9z m-280 -151 c0
-5 -4 -3 -9 5 -5 8 -9 22 -9 30 0 16 17 -16 18 -35z m336 15 c-4 -12 -9 -19
-12 -17 -3 3 -2 15 2 27 4 12 9 19 12 17 3 -3 2 -15 -2 -27z m-205 -175 c27
-14 33 -14 60 0 40 21 50 19 50 -8 0 -25 -19 -46 -58 -67 -20 -10 -29 -8 -63
14 -28 19 -39 33 -39 51 0 29 10 31 50 10z"/>
<path d="M633 114 c4 -4 -12 -28 -35 -53 l-43 -46 50 45 c27 25 51 46 53 46 1
1 -5 5 -15 8 -9 4 -14 4 -10 0z"/>
</g>
</svg>
